<?xml version="1.0" encoding="UTF-8" standalone="no"?>
<svg
   xmlns:dc="http://purl.org/dc/elements/1.1/"
   xmlns:cc="http://creativecommons.org/ns#"
   xmlns:rdf="http://www.w3.org/1999/02/22-rdf-syntax-ns#"
   xmlns:svg="http://www.w3.org/2000/svg"
   xmlns="http://www.w3.org/2000/svg"
   xmlns:xlink="http://www.w3.org/1999/xlink"
   xmlns:sodipodi="http://sodipodi.sourceforge.net/DTD/sodipodi-0.dtd"
   xmlns:inkscape="http://www.inkscape.org/namespaces/inkscape"
   width="210mm"
   height="297mm"
   viewBox="0 0 210 297"
   version="1.1"
   id="svg1911"
   inkscape:version="1.0.2 (1.0.2+r75+1)"
   sodipodi:docname="Leaf.svg"
   inkscape:export-filename="/home/eli/Documents/Hackathon 2021/PlantWateringReminder/assets/Leaf.png"
   inkscape:export-xdpi="98.676025"
   inkscape:export-ydpi="98.676025">
  <defs
     id="defs1905">
    <linearGradient
       inkscape:collect="always"
       id="linearGradient6156">
      <stop
         style="stop-color:#01ffff;stop-opacity:0.00392157"
         offset="0"
         id="stop6152" />
      <stop
         style="stop-color:#00ffec;stop-opacity:0.61960787"
         offset="1"
         id="stop6154" />
    </linearGradient>
    <linearGradient
       inkscape:collect="always"
       id="linearGradient5964">
      <stop
         style="stop-color:#ffff01;stop-opacity:1"
         offset="0"
         id="stop5960" />
      <stop
         style="stop-color:#ff004d;stop-opacity:0.99607843"
         offset="1"
         id="stop5962" />
    </linearGradient>
    <linearGradient
       inkscape:collect="always"
       id="linearGradient5106">
      <stop
         style="stop-color:#1f7730;stop-opacity:0.9921568"
         offset="0"
         id="stop5102" />
      <stop
         style="stop-color:#acff00;stop-opacity:0.68503243"
         offset="1"
         id="stop5104" />
    </linearGradient>
    <linearGradient
       inkscape:collect="always"
       id="linearGradient3062">
      <stop
         style="stop-color:#5960d3;stop-opacity:0.86666662"
         offset="0"
         id="stop3058" />
      <stop
         style="stop-color:#00ffff;stop-opacity:0.88777006"
         offset="1"
         id="stop3060" />
    </linearGradient>
    <linearGradient
       inkscape:collect="always"
       id="linearGradient3038">
      <stop
         style="stop-color:#18761a;stop-opacity:0.99086535"
         offset="0"
         id="stop3034" />
      <stop
         style="stop-color:#a3e900;stop-opacity:0.61960787"
         offset="1"
         id="stop3036" />
    </linearGradient>
    <filter
       inkscape:collect="always"
       style="color-interpolation-filters:sRGB"
       id="filter2996"
       x="-9.6046438e-06"
       width="1.0000192"
       y="-1.233519e-05"
       height="1.0000247">
      <feGaussianBlur
         inkscape:collect="always"
         stdDeviation="0.00011122755"
         id="feGaussianBlur2998" />
    </filter>
    <filter
       inkscape:collect="always"
       style="color-interpolation-filters:sRGB"
       id="filter3020"
       x="-8.2212759e-38"
       width="1"
       y="-1.0558538e-37"
       height="1">
      <feGaussianBlur
         inkscape:collect="always"
         stdDeviation="9.5207319e-37"
         id="feGaussianBlur3022" />
    </filter>
    <linearGradient
       inkscape:collect="always"
       xlink:href="#linearGradient5106"
       id="linearGradient3040"
       x1="398.7832"
       y1="716.71484"
       x2="407.36523"
       y2="389.99805"
       gradientUnits="userSpaceOnUse" />
    <linearGradient
       inkscape:collect="always"
       xlink:href="#linearGradient3062"
       id="linearGradient3056"
       x1="109.08875"
       y1="175.05376"
       x2="120.75561"
       y2="160.59697"
       gradientUnits="userSpaceOnUse"
       gradientTransform="translate(-5.2141865,-4.0356179)" />
    <linearGradient
       inkscape:collect="always"
       xlink:href="#linearGradient3038"
       id="linearGradient5088"
       gradientUnits="userSpaceOnUse"
       x1="102.09094"
       y1="455.77411"
       x2="676.70276"
       y2="614.1546" />
    <linearGradient
       inkscape:collect="always"
       xlink:href="#linearGradient5964"
       id="linearGradient5966"
       x1="135.48126"
       y1="92.971893"
       x2="136.79904"
       y2="209.32382"
       gradientUnits="userSpaceOnUse"
       gradientTransform="matrix(1.0214067,0,0,0.97175395,-2.5420001,5.4727286)" />
    <linearGradient
       inkscape:collect="always"
       xlink:href="#linearGradient6156"
       id="linearGradient6150"
       x1="106.96108"
       y1="160.25568"
       x2="98.617867"
       y2="165.04617"
       gradientUnits="userSpaceOnUse"
       gradientTransform="matrix(1.224415,0,0,1.3074075,-26.599518,-51.372344)" />
  </defs>
  <sodipodi:namedview
     id="base"
     pagecolor="#ffffff"
     bordercolor="#666666"
     borderopacity="1.0"
     inkscape:pageopacity="0.0"
     inkscape:pageshadow="2"
     inkscape:zoom="0.49497475"
     inkscape:cx="21.425125"
     inkscape:cy="409.13142"
     inkscape:document-units="mm"
     inkscape:current-layer="layer1"
     inkscape:document-rotation="0"
     showgrid="false"
     inkscape:window-width="1920"
     inkscape:window-height="1016"
     inkscape:window-x="0"
     inkscape:window-y="27"
     inkscape:window-maximized="1" />
  <metadata
     id="metadata1908">
    <rdf:RDF>
      <cc:Work
         rdf:about="">
        <dc:format>image/svg+xml</dc:format>
        <dc:type
           rdf:resource="http://purl.org/dc/dcmitype/StillImage" />
        <dc:title></dc:title>
      </cc:Work>
    </rdf:RDF>
  </metadata>
  <g
     inkscape:label="Layer 1"
     inkscape:groupmode="layer"
     id="layer1">
    <path
       id="path1913"
       style="opacity:0.862498;fill:url(#linearGradient5966);fill-opacity:1;stroke:none;stroke-width:11.9884;stroke-linecap:round;stroke-linejoin:round"
       d="m 107.54742,105.74511 c -0.10754,0.0192 -0.20275,0.0122 -0.31248,0.0367 -0.50194,0.11152 -1.02567,0.27633 -1.55973,0.49012 -0.53407,0.21379 -1.07849,0.47632 -1.62201,0.78236 -0.54351,0.30605 -1.08593,0.65576 -1.61621,1.04401 -0.53027,0.38826 -1.04848,0.81508 -1.54283,1.27551 -0.49436,0.46043 -0.965099,0.95432 -1.400848,1.47687 -0.435751,0.52258 -0.836317,1.07396 -1.190785,1.64862 -0.354459,0.57466 -0.662649,1.17252 -0.913138,1.78923 -0.250491,0.6167 -0.443577,1.25199 -0.567412,1.9007 -0.123845,0.64871 -0.178564,1.31087 -0.153068,1.98155 0.02554,0.67069 0.131322,1.35018 0.328831,2.03279 0.09877,0.34129 0.220829,0.68354 0.366839,1.02592 0.146021,0.34241 0.31589,0.68469 0.51199,1.02692 0.19611,0.34226 0.418143,0.6841 0.667172,1.02495 0.24904,0.34082 0.525473,0.68073 0.830282,1.01889 0.304798,0.33816 0.637877,0.6746 1.001287,1.00885 0.36339,0.33423 0.75696,0.66623 1.1818,0.99529 0.84966,0.65813 1.82493,1.30448 2.93735,1.93436 1.83192,1.03727 3.56801,2.06745 5.21176,3.08983 1.64376,1.0224 3.19524,2.03706 4.65807,3.04364 1.46284,1.00658 2.83686,2.00508 4.12603,2.99495 1.28917,0.98983 2.49339,1.97098 3.61612,2.94319 1.12276,0.97219 2.16434,1.93535 3.12792,2.88897 0.96357,0.95363 1.84912,1.8981 2.66077,2.83223 0.81163,0.93413 1.5494,1.85826 2.21634,2.77197 0.66695,0.91369 1.263,1.81682 1.79251,2.70919 0.52949,0.89237 0.99255,1.77381 1.39186,2.6439 0.39932,0.87012 0.73496,1.72872 1.01133,2.57563 0.27636,0.84692 0.4933,1.68202 0.65398,2.5048 0.16066,0.82282 0.265,1.63324 0.31721,2.43101 0.0522,0.79778 0.0522,1.58284 0.003,2.35466 -0.049,0.77182 -0.14681,1.53039 -0.28979,2.27532 -0.14296,0.74494 -0.33086,1.47633 -0.56054,2.19347 -0.22969,0.71714 -0.50106,1.42018 -0.81021,2.10861 -0.30916,0.68841 -0.65633,1.36245 -1.0377,2.02122 -0.38141,0.65878 -0.79721,1.30214 -1.24357,1.93032 -0.44637,0.62822 -0.92315,1.24123 -1.42724,1.83795 -0.50411,0.59671 -1.03523,1.1772 -1.58982,1.74152 -0.55459,0.56429 -1.13292,1.11212 -1.73075,1.64309 -0.59782,0.53095 -1.21566,1.04493 -1.8495,1.54166 -1.80355,1.87087 -0.83709,1.96456 -0.84541,4.17103 9.46434,-4.48739 15.83648,-14.33667 19.55529,-22.52928 8.75207,-21.94769 -2.85409,-46.48988 -25.92315,-54.81664 -3.2191,-1.16187 -6.56857,-1.96582 -9.98173,-2.39584 z"
       sodipodi:nodetypes="ccsssssssscsssssssssssssssssssscsssssssscccccc" />
    <path
       id="path2493"
       style="fill:url(#linearGradient5088);fill-opacity:1;stroke:none;stroke-width:45.4802;stroke-linecap:round;stroke-linejoin:round"
       d="M 428.78125 391.42969 C 426.21596 391.41611 423.69372 391.50986 421.2168 391.70508 C 418.73987 391.90029 416.30802 392.19629 413.92188 392.5918 C 411.53573 392.9873 409.19528 393.48106 406.90234 394.06836 C 404.6094 394.65566 402.36333 395.33682 400.16602 396.10742 C 397.9687 396.87803 395.81998 397.73818 393.7207 398.68359 C 391.62143 399.62901 389.57303 400.65976 387.57422 401.77148 C 385.5754 402.88321 383.6264 404.07617 381.73047 405.3457 C 379.83454 406.61524 377.9918 407.96201 376.20117 409.38086 C 374.41054 410.79971 372.67314 412.28993 370.99023 413.84961 C 369.30732 415.40929 367.67824 417.03847 366.10547 418.73047 C 362.95993 422.11448 360.03615 425.75485 357.3457 429.61719 C 354.65525 433.47953 352.19843 437.56323 349.98242 441.83594 C 347.76642 446.10865 345.79251 450.57044 344.07031 455.18555 C 342.34811 459.80066 340.877 464.56944 339.66797 469.45898 C 338.45893 474.34853 337.51245 479.35906 336.83594 484.45508 C 336.15943 489.5511 335.75353 494.73228 335.62891 499.9668 C 335.50428 505.20132 335.66081 510.48791 336.10742 515.79297 C 336.55404 521.09803 337.2909 526.42088 338.32812 531.72852 C 339.36535 537.03615 340.70243 542.32807 342.34961 547.57031 C 343.99679 552.81255 345.95396 558.00635 348.23047 563.11523 C 349.36872 565.66967 350.58555 568.20258 351.88477 570.71094 C 353.18398 573.21929 354.56475 575.70247 356.02734 578.15625 C 357.42944 580.50853 358.92772 582.75315 360.50977 584.90039 C 362.09181 587.04763 363.75881 589.0978 365.5 591.06445 C 367.24119 593.0311 369.056 594.9141 370.93555 596.72461 C 372.8151 598.53512 374.75876 600.27235 376.75586 601.95117 C 380.75007 605.30881 384.95918 608.42866 389.29883 611.40625 C 393.63848 614.38384 398.10825 617.22054 402.62695 620.01367 C 407.14566 622.80681 411.71276 625.55509 416.24414 628.35938 C 420.77553 631.16366 425.27075 634.02412 429.64844 637.03516 C 434.02612 640.0462 438.28615 643.20965 442.34375 646.62305 C 444.37255 648.32975 446.34999 650.09744 448.26758 651.94141 C 450.18516 653.78537 452.04255 655.70526 453.82812 657.71094 C 455.42816 659.50821 456.87583 661.36654 458.17969 663.31055 C 459.48355 665.25456 460.64345 667.28399 461.67188 669.41992 C 462.7003 671.55585 463.59737 673.79885 464.37109 676.17188 C 465.14482 678.5449 465.79618 681.04782 466.33594 683.70312 C 466.8757 686.35843 467.30237 689.16568 467.62891 692.14844 C 467.93509 694.9453 468.1351 697.92947 468.27148 701.05273 A 161.98138 161.98138 0 0 0 477.03906 696.55664 C 477.26669 696.40934 477.4975 696.26954 477.72461 696.12109 C 480.25595 694.46647 482.75526 692.74036 485.20703 690.94531 C 487.6588 689.15026 490.06282 687.28539 492.4082 685.35352 C 494.75358 683.42164 497.03977 681.42254 499.25195 679.35742 C 501.46413 677.2923 503.60408 675.16157 505.65625 672.9668 C 507.70842 670.77202 509.67372 668.5142 511.53906 666.19336 C 513.4044 663.87252 515.16861 661.48824 516.82031 659.04492 C 518.47202 656.6016 520.01062 654.09932 521.42188 651.53711 C 522.83311 648.9749 524.11773 646.3533 525.26172 643.67578 C 526.40571 640.99827 527.40985 638.26384 528.25977 635.47461 C 529.10968 632.68538 529.80495 629.84071 530.33398 626.94336 C 530.86302 624.04601 531.22492 621.09564 531.40625 618.09375 C 531.58758 615.09186 531.58769 612.03839 531.39453 608.93555 C 531.20135 605.83271 530.81521 602.68067 530.2207 599.48047 C 529.6262 596.28027 528.82342 593.03226 527.80078 589.73828 C 526.77814 586.44431 525.53618 583.10486 524.05859 579.7207 C 522.58101 576.33654 520.86755 572.90826 518.9082 569.4375 C 516.94886 565.96674 514.74331 562.45415 512.27539 558.90039 C 509.80747 555.34663 507.07752 551.75232 504.07422 548.11914 C 501.07091 544.48596 497.79402 540.81253 494.22852 537.10352 C 490.66301 533.3945 486.80881 529.64845 482.6543 525.86719 C 478.49978 522.08593 474.04377 518.26984 469.27344 514.41992 C 464.5031 510.57001 459.41883 506.68647 454.00586 502.77148 C 448.59289 498.8565 442.85195 494.91005 436.76953 490.93359 C 430.68712 486.95713 424.26303 482.95037 417.48438 478.91602 C 413.36807 476.46618 409.75928 473.95226 406.61523 471.39258 C 405.04321 470.11274 403.58688 468.82146 402.24219 467.52148 C 400.89749 466.2215 399.66497 464.91289 398.53711 463.59766 C 397.40925 462.28242 396.38636 460.96038 395.46484 459.63477 C 394.54333 458.30915 393.72176 456.97954 392.99609 455.64844 C 392.27043 454.31733 391.64186 452.98601 391.10156 451.6543 C 390.56126 450.32258 390.10957 448.99151 389.74414 447.66406 C 389.01327 445.00917 388.62169 442.36633 388.52734 439.75781 C 388.43304 437.14929 388.6355 434.57387 389.09375 432.05078 C 389.552 429.52769 390.26646 427.0568 391.19336 424.6582 C 392.12026 422.2596 393.26064 419.93428 394.57227 417.69922 C 395.88389 415.46416 397.3661 413.31957 398.97852 411.28711 C 400.59093 409.25465 402.33284 407.33377 404.16211 405.54297 C 405.99138 403.75217 407.90891 402.09212 409.87109 400.58203 C 411.83328 399.07194 413.84039 397.71181 415.85156 396.52148 C 417.86273 395.33116 419.87729 394.31002 421.85352 393.47852 C 423.82974 392.64702 425.76766 392.00589 427.625 391.57227 C 428.031 391.47747 428.38338 391.50437 428.78125 391.42969 z "
       transform="scale(0.26458333)" />
    <path
       id="path5083"
       style="fill:url(#linearGradient3040);fill-opacity:1;stroke:none;stroke-width:45.4802;stroke-linecap:round;stroke-linejoin:round"
       d="M 407.36523 389.99805 C 338.58233 389.87842 276.91223 432.36158 252.51367 496.67188 C 236.13191 539.85024 236.37255 577.95113 246.95117 611.16602 A 161.98138 161.98138 0 0 0 398.7832 716.71484 A 161.98138 161.98138 0 0 0 468.27148 701.05273 C 468.1351 697.92947 467.93509 694.9453 467.62891 692.14844 C 467.30237 689.16568 466.8757 686.35843 466.33594 683.70312 C 465.79618 681.04782 465.14482 678.5449 464.37109 676.17188 C 463.59737 673.79885 462.7003 671.55585 461.67188 669.41992 C 460.64345 667.28399 459.48355 665.25456 458.17969 663.31055 C 456.87583 661.36654 455.42816 659.50821 453.82812 657.71094 C 452.04255 655.70526 450.18516 653.78537 448.26758 651.94141 C 446.34999 650.09744 444.37255 648.32975 442.34375 646.62305 C 438.28615 643.20965 434.02612 640.0462 429.64844 637.03516 C 425.27075 634.02412 420.77553 631.16366 416.24414 628.35938 C 411.71276 625.55509 407.14566 622.80681 402.62695 620.01367 C 398.10825 617.22054 393.63848 614.38384 389.29883 611.40625 C 384.95918 608.42866 380.75007 605.30881 376.75586 601.95117 C 374.75876 600.27235 372.8151 598.53512 370.93555 596.72461 C 369.056 594.9141 367.24119 593.0311 365.5 591.06445 C 363.75881 589.0978 362.09181 587.04763 360.50977 584.90039 C 358.92772 582.75315 357.42944 580.50853 356.02734 578.15625 C 354.56475 575.70247 353.18398 573.21929 351.88477 570.71094 C 350.58555 568.20258 349.36872 565.66967 348.23047 563.11523 C 345.95396 558.00635 343.99679 552.81255 342.34961 547.57031 C 340.70243 542.32807 339.36535 537.03615 338.32812 531.72852 C 337.2909 526.42088 336.55404 521.09803 336.10742 515.79297 C 335.66081 510.48791 335.50428 505.20132 335.62891 499.9668 C 335.75353 494.73228 336.15943 489.5511 336.83594 484.45508 C 337.51245 479.35906 338.45893 474.34853 339.66797 469.45898 C 340.877 464.56944 342.34811 459.80066 344.07031 455.18555 C 345.79251 450.57044 347.76642 446.10865 349.98242 441.83594 C 352.19843 437.56323 354.65525 433.47953 357.3457 429.61719 C 360.03615 425.75485 362.95993 422.11448 366.10547 418.73047 C 367.67824 417.03847 369.30732 415.40929 370.99023 413.84961 C 372.67314 412.28993 374.41054 410.79971 376.20117 409.38086 C 377.9918 407.96201 379.83454 406.61524 381.73047 405.3457 C 383.6264 404.07617 385.5754 402.88321 387.57422 401.77148 C 389.57303 400.65976 391.62143 399.62901 393.7207 398.68359 C 395.81998 397.73818 397.9687 396.87803 400.16602 396.10742 C 402.36333 395.33682 404.6094 394.65566 406.90234 394.06836 C 409.19528 393.48106 411.53573 392.9873 413.92188 392.5918 C 416.30802 392.19629 418.73987 391.90029 421.2168 391.70508 C 423.69372 391.50986 426.21596 391.41611 428.78125 391.42969 C 421.68113 390.48906 414.52738 390.01084 407.36523 389.99805 z "
       transform="scale(0.26458333)" />
  </g>
  <g
     inkscape:groupmode="layer"
     id="layer2"
     inkscape:label="Layer 2" />
  <g
     inkscape:groupmode="layer"
     id="layer3"
     inkscape:label="Layer 3"
     style="filter:url(#filter3020)">
    <path
       id="path2871"
       style="opacity:1;fill:url(#linearGradient3056);fill-opacity:1;stroke:none;stroke-width:10.765;stroke-linecap:round;stroke-linejoin:round;filter:url(#filter2996)"
       d="m 115.94795,164.20132 c -0.62408,1.62338 0.26854,4.99532 -3.10807,5.07564 -2.62685,-0.21207 -6.67392,0.85516 -9.2987,0.10162 -5.765948,-1.30472 -8.491317,-4.33358 -10.699825,-9.99351 -0.153904,-3.11559 -1.396432,-7.98394 -0.248163,-9.66783 1.40426,-2.05929 14.310868,0.18285 17.651478,1.96397 4.50596,2.13577 7.71998,7.61522 5.70328,12.52011 z"
       sodipodi:nodetypes="ccccscc"
       transform="matrix(1.1279778,0,0,1.234817,-13.828573,-39.325776)" />
    <ellipse
       style="opacity:0.862498;fill:url(#linearGradient6150);fill-opacity:1;stroke:none;stroke-width:1.60051;stroke-linecap:round;stroke-linejoin:round;stroke-miterlimit:4;stroke-dasharray:none;stroke-opacity:1"
       id="path6140"
       cx="105.44112"
       cy="158.19383"
       rx="8.5919876"
       ry="9.2403345" />
  </g>
  <g
     inkscape:groupmode="layer"
     id="layer4"
     inkscape:label="Layer 4" />
</svg>
